<svg width="35" height="35" viewBox="0 0 35 35" fill="none" xmlns="http://www.w3.org/2000/svg">
<path d="M17.5016 2.18726C9.04627 2.18726 2.19043 9.0431 2.19043 17.4984C2.19043 25.9537 9.04627 32.8096 17.5016 32.8096C25.9569 32.8096 32.8127 25.9537 32.8127 17.4984C32.8127 9.0431 25.9569 2.18726 17.5016 2.18726ZM24.8598 13.7287C24.8701 13.8894 24.8701 14.0568 24.8701 14.2209C24.8701 19.238 21.0491 25.0173 14.0668 25.0173C11.9137 25.0173 9.91778 24.3918 8.23628 23.3153C8.54387 23.3495 8.83779 23.3631 9.15222 23.3631C10.9294 23.3631 12.5631 22.7616 13.8652 21.7432C12.1974 21.709 10.7961 20.6153 10.3176 19.1115C10.9021 19.197 11.4284 19.197 12.0299 19.0432C11.1711 18.8687 10.3992 18.4023 9.84538 17.7232C9.29152 17.0441 8.98983 16.1943 8.99159 15.3179V15.2701C9.49399 15.5538 10.0852 15.7281 10.7038 15.752C10.1838 15.4054 9.75735 14.9359 9.46224 14.385C9.16714 13.8342 9.01252 13.219 9.0121 12.5941C9.0121 11.8866 9.19665 11.2407 9.52816 10.6802C10.4814 11.8536 11.6708 12.8133 13.0192 13.4969C14.3676 14.1805 15.8447 14.5727 17.3546 14.6481C16.818 12.0677 18.7456 9.97954 21.0628 9.97954C22.1564 9.97954 23.1407 10.4375 23.8345 11.1757C24.6924 11.0151 25.5126 10.6938 26.244 10.2632C25.9603 11.1415 25.3656 11.8832 24.5762 12.3514C25.3417 12.2694 26.0799 12.0575 26.7635 11.7601C26.2474 12.5189 25.6015 13.1921 24.8598 13.7287Z" fill="white"/>
</svg>
